{"title":"Surrogates.2009.avi.R5.Release","uid":5132186,"size":1297507183,"categoryP":"video","categoryS":"movies","magnet":"?xt=urn:btih:d716f6681b596e37ede1e7ac34696a7303c4424e&amp;dn=Surrogates.2009.avi.R5.Release&amp;tr=udp%3A%2F%2Ftracker.openbittorrent.com%3A80&amp;tr=udp%3A%2F%2Fopen.demonii.com%3A1337&amp;tr=udp%3A%2F%2Ftracker.coppersurfer.tk%3A6969&amp;tr=udp%3A%2F%2Fexodus.desync.com%3A6969","seeders":0,"leechers":1,"uploader":"frentesay","files":4,"time":1256147528,"description":"Movies/XVID\nSize:\t1.20 GB\n\nGenres:\tAction , Sci-Fi , Thriller\nActors:\tBruce Willis , Radha Mitchell , Rosamund Pike , Boris Kodjoe , James Francis Ginty , James \n\nCromwell , Ving Rhames , Jack Noseworthy , Devin Ratray , Michael Cudlitz , Jeffrey De Serrano , Helena \n\nMattsson , Michael Phillip , Danny F Smith , Brian A. Parrish\nDirector:\tJonathan Mostow\nRuntime:\t88 min\nYear:\t2009\nPlot:\tSet in a futuristic world where humans live in isolation and interact through surrogate robots| \n\na cop (Willis) is forced to leave his home for the first time in years in order to investigate the \n\nmurders of others? surrogates.\nNFO:\t\n\nFormat                           : AVI\nFormat/Info                      : Audio Video Interleave\nFile size                        : 810 MiB\nDuration                         : 1h 24mn\nOverall bit rate                 : 1 341 Kbps\nWriting application              : VirtualDubMod 1.5.10.2 (build 2542/release)\nWriting library                  : VirtualDubMod build 2542/release\nOriginal source form             : MAX TORRENTZ\nCopyright                        : SIGISMUNT\n\nVideo\nFormat                           : xvid\nCodec ID                         : xvid\nDuration                         : 1h 24mn\nBit rate                         : 1 200 Kbps\nWidth                            : 704 pixels\nHeight                           : 366 pixels\nDisplay aspect ratio             : 1.923\nFrame rate                       : 23.976 fps\nResolution                       : 24 bits\nBits/(Pixel*Frame)               : 0.194\nStream size                      : 725 MiB (90%)\n\nAudio\nID                               : 1\nFormat                           : MPEG Audio\nFormat version                   : Version 1\nFormat profile                   : Layer 3\nCodec ID                         : 55\nCodec ID/Hint                    : MP3\nDuration                         : 1h 24mn\nBit rate mode                    : Constant\nBit rate                         : 128 Kbps\nChannel(s)                       : 2 channels\nSampling rate                    : 48.0 KHz\nResolution                       : 16 bits\nStream size                      : 77.3 MiB (10%)\nAlignment                        : Aligned on interleaves\nInterleave, duration             : 24 ms (0.58 video frame)\nInterleave, preload duration     : 24 ms\n\n\n\n\n","torrent":{"xt":"urn:btih:d716f6681b596e37ede1e7ac34696a7303c4424e","amp;dn":"Surrogates.2009.avi.R5.Release","amp;tr":["udp%3A%2F%2Ftracker.openbittorrent.com%3A80","udp%3A%2F%2Fopen.demonii.com%3A1337","udp%3A%2F%2Ftracker.coppersurfer.tk%3A6969","udp%3A%2F%2Fexodus.desync.com%3A6969"],"infoHash":"d716f6681b596e37ede1e7ac34696a7303c4424e","infoHashBuffer":{"type":"Buffer","data":[215,22,246,104,27,89,110,55,237,225,231,172,52,105,106,115,3,196,66,78]},"announce":[],"urlList":[]}}